<?xml version="1.0" standalone="no"?>
<!DOCTYPE svg PUBLIC "-//W3C//DTD SVG 20010904//EN"
 "http://www.w3.org/TR/2001/REC-SVG-20010904/DTD/svg10.dtd">
<svg version="1.0" xmlns="http://www.w3.org/2000/svg"
 width="960.000000pt" height="960.000000pt" viewBox="0 0 960.000000 960.000000"
 preserveAspectRatio="xMidYMid meet">
<metadata>
Created by potrace 1.11, written by Peter Selinger 2001-2013
</metadata>
<g transform="translate(0.000000,960.000000) scale(0.100000,-0.100000)"
fill="#000000" stroke="none">
<path d="M4650 9584 c-81 -18 -225 -87 -352 -170 -21 -13 -40 -24 -42 -24 -4
0 -198 -111 -226 -130 -8 -6 -22 -13 -30 -17 -8 -4 -43 -24 -78 -45 -34 -21
-65 -38 -68 -38 -3 0 -12 -7 -21 -15 -8 -8 -19 -13 -24 -10 -5 4 -9 3 -9 -2 0
-4 -21 -19 -47 -33 -27 -13 -50 -27 -53 -30 -9 -10 -65 -41 -82 -47 -10 -3
-18 -9 -18 -14 0 -5 -5 -9 -11 -9 -6 0 -37 -15 -68 -34 -31 -19 -72 -43 -91
-54 -82 -45 -115 -67 -122 -77 -4 -5 -8 -7 -8 -3 0 4 -33 -13 -74 -37 -40 -25
-79 -45 -85 -45 -6 0 -11 -4 -11 -10 0 -5 -6 -10 -14 -10 -8 0 -21 -6 -28 -12
-13 -13 -21 -18 -94 -59 -19 -10 -49 -27 -66 -38 -18 -10 -49 -27 -68 -37 -19
-11 -37 -21 -40 -24 -4 -5 -199 -118 -270 -157 -14 -8 -47 -28 -75 -44 -27
-17 -58 -33 -67 -36 -10 -3 -18 -9 -18 -13 0 -5 -12 -13 -27 -19 -28 -11 -42
-19 -98 -56 -16 -11 -33 -20 -36 -20 -3 0 -34 -17 -69 -37 -35 -21 -67 -38
-71 -38 -5 0 -9 -4 -9 -10 0 -5 -4 -10 -9 -10 -5 0 -30 -12 -56 -27 -46 -27
-80 -47 -160 -92 -22 -13 -83 -48 -135 -79 -152 -90 -174 -102 -193 -109 -9
-3 -17 -9 -17 -14 0 -5 -5 -9 -10 -9 -6 0 -43 -20 -83 -43 -39 -24 -115 -68
-167 -97 -52 -29 -102 -58 -110 -65 -8 -7 -44 -27 -80 -46 -36 -19 -67 -37
-70 -40 -3 -3 -25 -16 -50 -30 -197 -106 -318 -263 -366 -474 -11 -50 -13
-434 -11 -2215 2 -1185 5 -2162 8 -2170 3 -8 9 -33 14 -55 4 -22 11 -44 15
-50 3 -5 13 -26 20 -45 23 -60 82 -142 147 -207 35 -35 67 -63 72 -63 5 0 16
-6 23 -13 18 -18 345 -207 358 -207 5 0 10 -4 10 -8 0 -4 24 -20 52 -35 29
-16 69 -37 88 -49 61 -35 294 -170 328 -190 74 -42 101 -57 175 -102 43 -25
80 -46 83 -46 2 0 36 -20 76 -45 40 -25 78 -45 85 -45 7 0 13 -4 13 -10 0 -5
7 -10 15 -10 8 0 15 -4 15 -10 0 -5 5 -10 10 -10 10 0 169 -88 180 -100 6 -6
85 -49 117 -65 13 -5 23 -13 23 -17 0 -5 4 -8 9 -8 5 0 44 -20 85 -45 42 -25
81 -45 86 -45 6 0 10 -4 10 -10 0 -5 4 -10 9 -10 14 0 134 -71 143 -84 4 -6 8
-8 8 -4 0 4 29 -10 65 -32 36 -22 70 -40 75 -40 6 0 10 -4 10 -10 0 -5 4 -10
9 -10 5 0 65 -32 133 -71 67 -39 143 -83 168 -97 25 -14 57 -33 72 -43 14 -11
29 -19 32 -19 3 0 34 -17 68 -38 35 -21 70 -41 78 -45 8 -4 33 -18 55 -32 22
-14 47 -28 55 -32 8 -4 43 -24 78 -45 34 -21 67 -38 72 -38 6 0 10 -4 10 -10
0 -5 4 -10 9 -10 5 0 88 -46 185 -102 97 -57 193 -112 214 -123 20 -11 80 -45
132 -76 197 -116 279 -144 430 -148 149 -4 266 36 478 163 51 31 97 56 102 56
4 0 10 3 12 8 2 4 17 14 33 23 17 9 104 59 195 111 91 53 181 105 200 115 19
11 69 40 110 65 41 24 82 48 90 52 8 4 24 12 35 19 11 7 50 29 87 50 37 21 70
43 74 48 3 5 9 7 14 4 4 -3 13 2 20 10 7 8 19 15 26 15 8 0 14 5 14 10 0 6 4
10 10 10 5 0 44 20 86 45 41 25 77 45 79 45 3 0 180 104 205 120 8 6 22 13 30
17 8 4 17 9 20 12 3 3 23 15 45 27 22 12 92 51 155 89 63 37 131 76 150 87 64
36 145 83 165 95 11 7 27 15 35 19 8 4 39 22 68 41 29 18 54 33 56 33 3 0 39
20 80 45 42 25 81 45 85 45 5 0 11 3 13 8 2 4 18 15 36 24 17 10 47 26 64 35
18 10 35 21 38 24 3 3 12 9 20 13 8 3 36 19 62 34 237 137 282 162 289 162 5
0 9 5 9 10 0 6 6 10 14 10 8 0 16 3 18 8 2 4 21 16 43 27 22 11 42 23 45 26 6
7 54 34 93 51 15 7 27 16 27 20 0 4 4 8 10 8 5 0 44 20 86 45 41 25 80 45 85
45 5 0 9 5 9 10 0 6 4 10 9 10 12 0 166 89 224 129 61 42 128 108 168 166 19
28 36 52 40 55 13 12 54 122 70 190 17 71 18 183 16 2225 -2 1183 -5 2161 -8
2175 -29 132 -92 250 -185 344 -51 51 -170 136 -191 136 -7 0 -13 4 -13 9 0 5
-8 11 -17 15 -18 6 -48 22 -118 66 -22 14 -42 25 -45 25 -3 0 -23 12 -45 26
-22 14 -47 28 -55 32 -8 4 -22 11 -30 17 -44 29 -223 130 -231 130 -5 0 -9 5
-9 10 0 6 -4 10 -10 10 -5 0 -47 23 -94 50 -47 28 -89 50 -95 50 -6 0 -11 4
-11 8 0 4 -22 19 -50 33 -27 13 -50 27 -50 32 0 4 -4 7 -10 7 -5 0 -42 19 -82
43 -40 24 -80 46 -88 50 -8 4 -28 16 -45 27 -16 11 -39 24 -51 29 -18 8 -85
48 -149 89 -11 6 -36 20 -55 30 -19 9 -36 20 -38 25 -2 4 -7 7 -12 7 -10 0
-500 285 -520 302 -8 7 -17 12 -20 11 -3 0 -32 15 -65 34 -33 20 -75 44 -92
54 -18 11 -48 27 -65 38 -18 10 -127 73 -242 140 -115 66 -213 121 -218 121
-4 0 -8 4 -8 8 0 4 -12 13 -27 20 -16 6 -44 21 -63 33 -19 11 -53 31 -75 42
-22 12 -42 24 -45 27 -8 9 -99 61 -107 61 -5 0 -15 6 -23 13 -8 7 -22 16 -30
20 -8 3 -28 15 -45 26 -16 10 -41 25 -55 33 -147 82 -245 140 -248 149 -2 4
-10 8 -18 8 -7 0 -37 15 -66 34 -88 55 -199 105 -268 120 -86 18 -220 18 -300
0z"/>
</g>
</svg>
